# xmcd CD database file
#
# Track frame offsets:
#	150
#	16447
#	30402
#	47397
#	60897
#	75985
#	90415
#	106102
#	124985
#	141782
#	158592
#
# Disc length: 2426 seconds
#
# Revision: 0
# Processed by: cddbd v1.5.2PL0 Copyright (c) Steve Scherf et al.
# Submitted via: CDex 1.51
#
DISCID=6f09780b
DTITLE=Graeme Bell All Stars - The Best Of Dixieland
DYEAR=1900
DGENRE=Jazz
TTITLE0=South
TTITLE1=Riverside Blues
TTITLE2=I'm Crazy 'Bout My Baby
TTITLE3=Honey Hush
TTITLE4=Sugar
TTITLE5=At A Georgia Camp Meeting
TTITLE6=Sentimental Journey
TTITLE7=Melancholy
TTITLE8=Tain't Watcha Do
TTITLE9=This One's For Eric
TTITLE10=Muskrat Ramble
EXTD=
EXTT0=
EXTT1=
EXTT2=
EXTT3=
EXTT4=
EXTT5=
EXTT6=
EXTT7=
EXTT8=
EXTT9=
EXTT10=
PLAYORDER=
